<?xml version="1.0" encoding="UTF-8"?>
<svg viewBox="0 0 1280 720" xmlns="http://www.w3.org/2000/svg" role="img" aria-labelledby="planning-flow-title planning-flow-desc"><title id="planning-flow-title">Agent OS planning and delivery flow</title><desc id="planning-flow-desc">Flowchart routing vague or bounded work through guide-me, chart-work, shape-work, deliver-work, or batch-work to a verified delivery target.</desc><defs>
          <style>@import url('https://fonts.googleapis.com/css2?family=Inter:wght@400;500;600;700&amp;family=Geist+Mono:wght@400;500;600&amp;display=swap');</style><marker id="arrow" markerWidth="8" markerHeight="6" refX="7" refY="3" orient="auto"><polygon points="0 0,8 3,0 6" fill="#98989f"/></marker><marker id="arrow-accent" markerWidth="8" markerHeight="6" refX="7" refY="3" orient="auto"><polygon points="0 0,8 3,0 6" fill="#8b75ff"/></marker><marker id="arrow-link" markerWidth="8" markerHeight="6" refX="7" refY="3" orient="auto"><polygon points="0 0,8 3,0 6" fill="#44cbb8"/></marker></defs><rect width="1280" height="720" fill="#1b1b1f"/>
<!-- Zones --><rect x="40" y="52" width="1200" height="172" rx="8" fill="rgba(139,117,255,.025)" stroke="rgba(139,117,255,.18)"/><rect x="40" y="244" width="1200" height="180" rx="8" fill="rgba(223,223,214,.02)" stroke="rgba(223,223,214,.12)"/><rect x="40" y="444" width="1200" height="144" rx="8" fill="rgba(68,203,184,.025)" stroke="rgba(68,203,184,.18)"/><text x="56" y="76" fill="#8b75ff" font-size="8" font-family="'Geist Mono',monospace" letter-spacing=".14em">UNDERSTAND + PLAN</text><text x="56" y="268" fill="#98989f" font-size="8" font-family="'Geist Mono',monospace" letter-spacing=".14em">MATERIALIZE READY WORK</text><text x="56" y="468" fill="#44cbb8" font-size="8" font-family="'Geist Mono',monospace" letter-spacing=".14em">DELIVER + VERIFY</text>
<!-- Connectors --><line x1="180" y1="136" x2="252" y2="136" stroke="#8b75ff" stroke-width="1.2" marker-end="url(#arrow-accent)"/><path d="M 412,136 H 472 Q 480,136 480,144 V 168" fill="none" stroke="#8b75ff" stroke-width="1.2" marker-end="url(#arrow-accent)"/><path d="M 552,168 V 136 H 652" fill="none" stroke="#98989f" stroke-width="1.2" marker-end="url(#arrow)"/><path d="M 552,248 V 312 H 652" fill="none" stroke="#98989f" stroke-width="1.2" marker-end="url(#arrow)"/><line x1="812" y1="136" x2="884" y2="136" stroke="#98989f" stroke-width="1.2" marker-end="url(#arrow)"/><path d="M 964,176 V 248 Q 964,256 956,256 H 820 Q 812,256 812,264 V 288" fill="none" stroke="#8b75ff" stroke-width="1.2" marker-end="url(#arrow-accent)"/><line x1="812" y1="328" x2="884" y2="328" stroke="#8b75ff" stroke-width="1.2" marker-end="url(#arrow-accent)"/><path d="M 964,368 V 400 Q 964,408 956,408 H 560 Q 552,408 552,416 V 448" fill="none" stroke="#98989f" stroke-width="1.2" marker-end="url(#arrow)"/><path d="M 964,368 V 400 Q 964,408 972,408 H 1080 Q 1088,408 1088,416 V 448" fill="none" stroke="#98989f" stroke-width="1.2" marker-end="url(#arrow)"/><path d="M 632,488 H 768 Q 776,488 776,496 V 512 Q 776,520 784,520 H 836" fill="none" stroke="#44cbb8" stroke-width="1.2" marker-end="url(#arrow-link)"/><path d="M 1008,488 H 960 Q 952,488 952,496 V 512 Q 952,520 944,520 H 916" fill="none" stroke="#44cbb8" stroke-width="1.2" marker-end="url(#arrow-link)"/>
<!-- Branch labels --><rect x="572" y="116" width="52" height="16" rx="4" fill="#1b1b1f"/><text x="598" y="128" fill="#98989f" font-size="8" font-family="'Geist Mono',monospace" text-anchor="middle">BROAD</text><rect x="568" y="292" width="68" height="16" rx="4" fill="#1b1b1f"/><text x="602" y="304" fill="#98989f" font-size="8" font-family="'Geist Mono',monospace" text-anchor="middle">BOUNDED</text><rect x="644" y="388" width="52" height="16" rx="4" fill="#1b1b1f"/><text x="670" y="400" fill="#98989f" font-size="8" font-family="'Geist Mono',monospace" text-anchor="middle">ONE</text><rect x="1012" y="388" width="60" height="16" rx="4" fill="#1b1b1f"/><text x="1042" y="400" fill="#98989f" font-size="8" font-family="'Geist Mono',monospace" text-anchor="middle">BATCH</text>
<!-- Nodes --><rect x="60" y="104" width="120" height="64" rx="20" fill="rgba(152,152,159,.08)" stroke="#6a6a71"/><text x="120" y="132" fill="#dfdfd6" font-size="12" font-weight="600" font-family="Inter,sans-serif" text-anchor="middle">Vague desire</text><text x="120" y="152" fill="#98989f" font-size="8" font-family="'Geist Mono',monospace" text-anchor="middle">goal still moves</text>
<rect x="252" y="96" width="160" height="80" rx="8" fill="rgba(139,117,255,.08)" stroke="#8b75ff"/><text x="332" y="124" fill="#dfdfd6" font-size="12" font-weight="600" font-family="Inter,sans-serif" text-anchor="middle">guide-me</text><text x="332" y="144" fill="#98989f" font-size="8" font-family="'Geist Mono',monospace" text-anchor="middle">understand → explain</text><text x="332" y="160" fill="#98989f" font-size="8" font-family="'Geist Mono',monospace" text-anchor="middle">approved TLDR</text>
<polygon points="552,168 632,208 552,248 472,208" fill="#1b1b1f" stroke="#dfdfd6"/><text x="552" y="204" fill="#dfdfd6" font-size="11" font-weight="600" font-family="Inter,sans-serif" text-anchor="middle">Several decision</text><text x="552" y="220" fill="#dfdfd6" font-size="11" font-weight="600" font-family="Inter,sans-serif" text-anchor="middle">threads?</text>
<rect x="652" y="96" width="160" height="80" rx="8" fill="#1b1b1f" stroke="#dfdfd6"/><text x="732" y="124" fill="#dfdfd6" font-size="12" font-weight="600" font-family="Inter,sans-serif" text-anchor="middle">chart-work</text><text x="732" y="144" fill="#98989f" font-size="8" font-family="'Geist Mono',monospace" text-anchor="middle">map + decision tickets</text><text x="732" y="160" fill="#98989f" font-size="8" font-family="'Geist Mono',monospace" text-anchor="middle">parallel branches</text>
<rect x="884" y="96" width="160" height="80" rx="8" fill="#1b1b1f" stroke="#dfdfd6"/><text x="964" y="124" fill="#dfdfd6" font-size="12" font-weight="600" font-family="Inter,sans-serif" text-anchor="middle">Bounded branch</text><text x="964" y="144" fill="#98989f" font-size="8" font-family="'Geist Mono',monospace" text-anchor="middle">settled handoff or</text><text x="964" y="160" fill="#98989f" font-size="8" font-family="'Geist Mono',monospace" text-anchor="middle">direct bounded idea</text>
<rect x="652" y="288" width="160" height="80" rx="8" fill="rgba(139,117,255,.08)" stroke="#8b75ff"/><text x="732" y="316" fill="#dfdfd6" font-size="12" font-weight="600" font-family="Inter,sans-serif" text-anchor="middle">shape-work</text><text x="732" y="336" fill="#98989f" font-size="8" font-family="'Geist Mono',monospace" text-anchor="middle">outcome + boundaries</text><text x="732" y="352" fill="#98989f" font-size="8" font-family="'Geist Mono',monospace" text-anchor="middle">ground truth + issues</text>
<rect x="884" y="288" width="160" height="80" rx="8" fill="#1b1b1f" stroke="#dfdfd6"/><text x="964" y="316" fill="#dfdfd6" font-size="12" font-weight="600" font-family="Inter,sans-serif" text-anchor="middle">Ready issues</text><text x="964" y="336" fill="#98989f" font-size="8" font-family="'Geist Mono',monospace" text-anchor="middle">stable dependencies</text><text x="964" y="352" fill="#98989f" font-size="8" font-family="'Geist Mono',monospace" text-anchor="middle">explicit verification</text>
<rect x="472" y="448" width="160" height="80" rx="8" fill="#1b1b1f" stroke="#dfdfd6"/><text x="552" y="476" fill="#dfdfd6" font-size="12" font-weight="600" font-family="Inter,sans-serif" text-anchor="middle">deliver-work</text><text x="552" y="496" fill="#98989f" font-size="8" font-family="'Geist Mono',monospace" text-anchor="middle">one ready change</text><text x="552" y="512" fill="#98989f" font-size="8" font-family="'Geist Mono',monospace" text-anchor="middle">bounded implementation</text>
<rect x="1008" y="448" width="160" height="80" rx="8" fill="#1b1b1f" stroke="#dfdfd6"/><text x="1088" y="476" fill="#dfdfd6" font-size="12" font-weight="600" font-family="Inter,sans-serif" text-anchor="middle">batch-work</text><text x="1088" y="496" fill="#98989f" font-size="8" font-family="'Geist Mono',monospace" text-anchor="middle">isolated ready units</text><text x="1088" y="512" fill="#98989f" font-size="8" font-family="'Geist Mono',monospace" text-anchor="middle">aggregate verification</text>
<rect x="836" y="488" width="80" height="64" rx="20" fill="rgba(68,203,184,.08)" stroke="#44cbb8"/><text x="876" y="516" fill="#dfdfd6" font-size="11" font-weight="600" font-family="Inter,sans-serif" text-anchor="middle">Verified</text><text x="876" y="532" fill="#98989f" font-size="8" font-family="'Geist Mono',monospace" text-anchor="middle">target</text>
<!-- Side note --><rect x="80" y="620" width="1120" height="56" rx="8" fill="#202127" stroke="rgba(223,223,214,.14)"/><text x="104" y="644" fill="#dfdfd6" font-size="11" font-weight="600" font-family="Inter,sans-serif">dispatch-next can select one live target at the planning or delivery frontier.</text><text x="104" y="664" fill="#98989f" font-size="9" font-family="'Geist Mono',monospace">It does not invent work, infer a batch, merge, or deploy.</text>
</svg>
